<svg width="28" height="32" viewBox="0 0 28 32" fill="none" xmlns="http://www.w3.org/2000/svg">
<path d="M14 28.2272L5.97506 31.6721C4.75682 32.1931 3.5995 32.0933 2.50308 31.3727C1.40662 30.6521 0.858398 29.6386 0.858398 28.3322V3.6548C0.858398 2.63353 1.21221 1.76907 1.91984 1.06144C2.62747 0.353814 3.49192 0 4.5132 0H23.4868C24.5081 0 25.3726 0.353814 26.0802 1.06144C26.7878 1.76907 27.1416 2.63353 27.1416 3.6548V28.3322C27.1416 29.6386 26.5934 30.6521 25.497 31.3727C24.4005 32.0933 23.2432 32.1931 22.025 31.6721L14 28.2272ZM14 24.868L23.2341 28.8455C23.4415 28.9362 23.6391 28.9168 23.8271 28.7872C24.015 28.6576 24.109 28.4826 24.109 28.2622V3.6548C24.109 3.49926 24.0442 3.35667 23.9146 3.22704C23.785 3.09744 23.6424 3.03264 23.4868 3.03264H4.5132C4.35765 3.03264 4.21507 3.09744 4.08544 3.22704C3.95584 3.35667 3.89104 3.49926 3.89104 3.6548V28.2622C3.89104 28.4826 3.985 28.6576 4.17293 28.7872C4.36089 28.9168 4.55855 28.9362 4.76592 28.8455L14 24.868Z" fill="#343434"/>
</svg>
