<svg width="32" height="30" viewBox="0 0 32 30" fill="none" xmlns="http://www.w3.org/2000/svg">
<path d="M5.95951 25.7143L2.58788 29.0859C2.10852 29.5653 1.55738 29.6729 0.934445 29.4089C0.311482 29.1449 0 28.6734 0 27.9944V3.49573C0 2.64498 0.294738 1.92486 0.884213 1.33538C1.47369 0.74591 2.1938 0.451172 3.04456 0.451172H28.9554C29.8062 0.451172 30.5263 0.74591 31.1158 1.33538C31.7053 1.92486 32 2.64498 32 3.49573V22.6698C32 23.5205 31.7053 24.2406 31.1158 24.8301C30.5263 25.4196 29.8062 25.7143 28.9554 25.7143H5.95951ZM7.57892 19.3985H17.6842C18.0421 19.3985 18.3421 19.2774 18.5842 19.0352C18.8263 18.793 18.9473 18.4929 18.9473 18.1348C18.9473 17.7768 18.8263 17.4768 18.5842 17.235C18.3421 16.9932 18.0421 16.8723 17.6842 16.8723H7.57892C7.22103 16.8723 6.92104 16.9934 6.67896 17.2356C6.43686 17.4778 6.31581 17.7779 6.31581 18.1359C6.31581 18.494 6.43686 18.7939 6.67896 19.0358C6.92104 19.2776 7.22103 19.3985 7.57892 19.3985ZM7.57892 14.3459H24.4211C24.779 14.3459 25.079 14.2248 25.3211 13.9826C25.5632 13.7404 25.6842 13.4402 25.6842 13.0822C25.6842 12.7241 25.5632 12.4242 25.3211 12.1824C25.079 11.9405 24.779 11.8196 24.4211 11.8196H7.57892C7.22103 11.8196 6.92104 11.9407 6.67896 12.1829C6.43686 12.4251 6.31581 12.7253 6.31581 13.0833C6.31581 13.4414 6.43686 13.7413 6.67896 13.9831C6.92104 14.2249 7.22103 14.3459 7.57892 14.3459ZM7.57892 9.29322H24.4211C24.779 9.29322 25.079 9.17212 25.3211 8.92993C25.5632 8.68771 25.6842 8.38759 25.6842 8.02955C25.6842 7.67149 25.5632 7.37154 25.3211 7.12972C25.079 6.88789 24.779 6.76698 24.4211 6.76698H7.57892C7.22103 6.76698 6.92104 6.88807 6.67896 7.13026C6.43686 7.37248 6.31581 7.67261 6.31581 8.03064C6.31581 8.38871 6.43686 8.68865 6.67896 8.93048C6.92104 9.1723 7.22103 9.29322 7.57892 9.29322Z" fill="#343434"/>
</svg>
