<svg width="32" height="32" viewBox="0 0 32 32" fill="none" xmlns="http://www.w3.org/2000/svg">
<path d="M15.9815 25.4575C16.4624 25.4575 16.8685 25.2914 17.2 24.9594C17.5314 24.6273 17.6971 24.2209 17.6971 23.74C17.6971 23.2591 17.5311 22.8529 17.1991 22.5215C16.867 22.19 16.4606 22.0243 15.9797 22.0243C15.4988 22.0243 15.0926 22.1903 14.7612 22.5224C14.4297 22.8544 14.264 23.2609 14.264 23.7418C14.264 24.2227 14.43 24.6289 14.7621 24.9603C15.0941 25.2917 15.5006 25.4575 15.9815 25.4575ZM16.0028 32C13.7899 32 11.7098 31.5801 9.76264 30.7402C7.81543 29.9003 6.12164 28.7606 4.68128 27.3208C3.24088 25.8811 2.10057 24.188 1.26034 22.2417C0.420114 20.2954 0 18.2158 0 16.0028C0 13.7899 0.419931 11.7098 1.25979 9.76264C2.09965 7.81543 3.23945 6.12165 4.67917 4.68128C6.11892 3.24088 7.81196 2.10057 9.7583 1.26034C11.7046 0.420115 13.7842 0 15.9972 0C18.2101 0 20.2902 0.419933 22.2374 1.25979C24.1846 2.09966 25.8784 3.23945 27.3187 4.67917C28.7591 6.11892 29.8994 7.81197 30.7397 9.7583C31.5799 11.7046 32 13.7842 32 15.9972C32 18.2101 31.5801 20.2902 30.7402 22.2374C29.9003 24.1846 28.7606 25.8784 27.3208 27.3187C25.8811 28.7591 24.188 29.8994 22.2417 30.7397C20.2954 31.5799 18.2158 32 16.0028 32ZM16 29.4737C19.7614 29.4737 22.9474 28.1685 25.5579 25.5579C28.1685 22.9474 29.4737 19.7614 29.4737 16C29.4737 12.2386 28.1685 9.05261 25.5579 6.44208C22.9474 3.83155 19.7614 2.52628 16 2.52628C12.2386 2.52628 9.05261 3.83155 6.44208 6.44208C3.83155 9.05261 2.52628 12.2386 2.52628 16C2.52628 19.7614 3.83155 22.9474 6.44208 25.5579C9.05261 28.1685 12.2386 29.4737 16 29.4737ZM16.1364 8.79025C16.9135 8.79025 17.586 9.03487 18.1539 9.52411C18.7217 10.0133 19.0057 10.6249 19.0057 11.3587C19.0057 11.9763 18.8243 12.529 18.4616 13.017C18.0988 13.505 17.6842 13.9595 17.2179 14.3806C16.6065 14.9229 16.0682 15.5195 15.603 16.1704C15.1379 16.8212 14.8891 17.546 14.8567 18.345C14.8459 18.6516 14.9539 18.9085 15.1806 19.1158C15.4073 19.3231 15.6718 19.4267 15.9741 19.4267C16.298 19.4267 16.5722 19.3187 16.7968 19.1028C17.0213 18.8869 17.1649 18.6224 17.2275 18.3093C17.3398 17.7306 17.5789 17.2151 17.9449 16.7628C18.3109 16.3104 18.7074 15.8803 19.1344 15.4723C19.7481 14.874 20.2839 14.2217 20.7417 13.5153C21.1994 12.8088 21.4283 12.0209 21.4283 11.1514C21.4283 9.81704 20.9025 8.72068 19.851 7.86238C18.7995 7.00408 17.5719 6.57492 16.1684 6.57492C15.1665 6.57492 14.2219 6.79679 13.3344 7.24053C12.447 7.68423 11.756 8.33146 11.2615 9.18221C11.1083 9.44346 11.059 9.71845 11.1139 10.0072C11.1688 10.2959 11.317 10.5151 11.5584 10.6648C11.8658 10.8359 12.1814 10.8847 12.5053 10.8113C12.8291 10.7379 13.1044 10.5533 13.3312 10.2575C13.6723 9.81483 14.0853 9.45963 14.57 9.1919C15.0548 8.92414 15.5769 8.79025 16.1364 8.79025Z" fill="#343434"/>
</svg>
