<svg width="32" height="32" viewBox="0 0 32 32" fill="none" xmlns="http://www.w3.org/2000/svg">
<path d="M13.4416 32C13.0637 32 12.7366 31.8731 12.4602 31.6194C12.1838 31.3657 12.0175 31.0499 11.9614 30.672L11.4724 26.8696C11.0211 26.7185 10.5584 26.5069 10.0845 26.2348C9.61051 25.9627 9.18675 25.6712 8.81319 25.3603L5.29579 26.8437C4.9352 27.0013 4.5773 27.0196 4.2221 26.8987C3.8669 26.7778 3.58781 26.5511 3.38484 26.2186L0.852115 21.8073C0.659918 21.4748 0.600536 21.1196 0.673967 20.7417C0.747371 20.3639 0.936298 20.0594 1.24075 19.8284L4.2853 17.5255C4.24643 17.275 4.21889 17.0235 4.20269 16.7709C4.1865 16.5182 4.1784 16.2667 4.1784 16.0162C4.1784 15.7765 4.1865 15.5331 4.20269 15.2858C4.21889 15.0386 4.24643 14.7681 4.2853 14.4745L1.24075 12.1716C0.936298 11.9406 0.744676 11.6361 0.665883 11.2583C0.587062 10.8804 0.649139 10.5252 0.852115 10.1927L3.38484 5.81383C3.58781 5.48131 3.86421 5.25458 4.21402 5.13366C4.5638 5.01273 4.91899 5.03109 5.27958 5.18873L8.79698 6.65593C9.20293 6.33419 9.6364 6.03999 10.0974 5.77332C10.5584 5.50663 11.0113 5.29231 11.4561 5.13037L11.9614 1.32796C12.0175 0.95008 12.1838 0.634289 12.4602 0.38059C12.7366 0.126864 13.0637 0 13.4416 0H18.5427C18.9206 0 19.2504 0.126864 19.5322 0.38059C19.814 0.634289 19.9829 0.95008 20.0391 1.32796L20.5281 5.14658C21.0334 5.33011 21.4906 5.54441 21.8998 5.78949C22.309 6.03457 22.722 6.32338 23.1387 6.65593L26.7209 5.18873C27.0815 5.03109 27.4367 5.01003 27.7865 5.12557C28.1363 5.24108 28.4127 5.46509 28.6156 5.79761L31.1484 10.1927C31.3513 10.5252 31.4134 10.8804 31.3346 11.2583C31.2558 11.6361 31.0642 11.9406 30.7597 12.1716L27.6504 14.523C27.7109 14.7951 27.7438 15.0494 27.7492 15.2858C27.7546 15.5222 27.7573 15.7603 27.7573 16C27.7573 16.2289 27.7519 16.4615 27.7411 16.698C27.7303 16.9344 27.6914 17.2049 27.6245 17.5094L30.7014 19.8284C31.0059 20.0594 31.1975 20.3639 31.2763 20.7417C31.3551 21.1196 31.2931 21.4748 31.0901 21.8073L28.5573 26.1927C28.3543 26.5252 28.0709 26.7535 27.7071 26.8777C27.3433 27.0018 26.9811 26.9851 26.6205 26.8275L23.1387 25.3441C22.722 25.6766 22.2966 25.9708 21.8626 26.2267C21.4285 26.4826 20.9837 26.6915 20.5281 26.8534L20.0391 30.672C19.9829 31.0499 19.814 31.3657 19.5322 31.6194C19.2504 31.8731 18.9206 32 18.5427 32H13.4416ZM14.316 29.4737H17.6261L18.2318 24.962C19.0912 24.7374 19.8766 24.4184 20.5881 24.0049C21.2995 23.5914 21.9857 23.0597 22.6464 22.4097L26.831 24.1684L28.4893 21.3053L24.8359 18.5522C24.9762 18.1161 25.0718 17.6885 25.1225 17.2696C25.1733 16.8508 25.1986 16.4275 25.1986 16C25.1986 15.5617 25.1733 15.1385 25.1225 14.7304C25.0718 14.3223 24.9762 13.9055 24.8359 13.4802L28.5217 10.6947L26.8634 7.83156L22.6302 9.61619C22.0667 9.01375 21.3914 8.48149 20.6043 8.01943C19.8172 7.55734 19.021 7.23021 18.2156 7.03804L17.6845 2.52628H14.3419L13.7849 7.02183C12.9255 7.2248 12.1319 7.53574 11.4043 7.95463C10.6766 8.37352 9.98241 8.91334 9.32169 9.57409L5.13705 7.83156L3.47873 10.6947L7.116 13.4057C6.97565 13.8051 6.87741 14.2208 6.82127 14.6526C6.76513 15.0845 6.73706 15.539 6.73706 16.0162C6.73706 16.4545 6.76513 16.8842 6.82127 17.3053C6.87741 17.7263 6.97025 18.142 7.09979 18.5522L3.47873 21.3053L5.13705 24.1684L9.30548 22.4C9.94461 23.0564 10.628 23.5941 11.3557 24.013C12.0833 24.4319 12.8877 24.7536 13.7687 24.9782L14.316 29.4737ZM16.0196 21.0526C17.421 21.0526 18.6134 20.5608 19.597 19.5773C20.5805 18.5938 21.0723 17.4013 21.0723 16C21.0723 14.5987 20.5805 13.4062 19.597 12.4227C18.6134 11.4392 17.421 10.9474 16.0196 10.9474C14.6011 10.9474 13.4043 11.4392 12.4294 12.4227C11.4545 13.4062 10.9671 14.5987 10.9671 16C10.9671 17.4013 11.4545 18.5938 12.4294 19.5773C13.4043 20.5608 14.6011 21.0526 16.0196 21.0526Z" fill="#343434"/>
</svg>
